<svg width="36" height="36" viewBox="0 0 36 36" fill="none" xmlns="http://www.w3.org/2000/svg">
<g clip-path="url(#clip0_5_409)">
<path d="M33.75 36H2.25C1.00898 36 0 34.991 0 33.75V2.25C0 1.00898 1.00898 0 2.25 0H33.75C34.991 0 36 1.00898 36 2.25V33.75C36 34.991 34.991 36 33.75 36Z" fill="#36454F"/>
<path fill-rule="evenodd" clip-rule="evenodd" d="M4.5 0H2.25C1.00898 0 0 1.00898 0 2.25V4.5V6.75V9V11.25V13.5V15.75V18V20.25V22.5V24.75V27V29.25V31.5V33.75C0 34.991 1.00898 36 2.25 36H4.5H6.75H9H11.25H13.5H15.75H18H20.25H22.5H24.75H27H29.25H31.5H33.75C34.991 36 36 34.991 36 33.75V31.5V29.25V27V24.75V22.5V20.25V18V15.75V13.5V11.25V9V6.75V4.5V2.25C36 1.00898 34.991 0 33.75 0H31.5H29.25H27H24.75H22.5H20.25H18H15.75H13.5H11.25H9H6.75H4.5Z" fill="#287480"/>
<path fill-rule="evenodd" clip-rule="evenodd" d="M6.75 4.5H9H11.25H13.5H15.75V6.75V9V11.25V13.5V15.75V18V20.25V22.5V24.75V27V29.25H13.5V31.5H11.25H9H6.75V29.25V27H9H11.25V24.75V22.5V20.25V18V15.75V13.5V11.25V9H9H6.75H4.5V6.75V4.5H6.75ZM24.75 24.75V22.5V20.25V18V15.75V13.5V11.25V9H27H29.25V6.75V4.5H27H24.75H22.5V6.75H20.25V9V11.25V13.5V15.75V18V20.25V22.5V24.75V27V29.25V31.5H22.5H24.75H27H29.25H31.5V29.25V27H29.25H27H24.75V24.75Z" fill="white"/>
<path fill-rule="evenodd" clip-rule="evenodd" d="M32.5898 0H33.7148C34.9769 0 36 1.0231 36 2.28516V3.41016V32.5898V33.7148C36 34.9769 34.9769 36 33.7148 36H32.5898H3.41016H2.28516C1.0231 36 0 34.9769 0 33.7148V32.5898V3.41016V2.28516C0 1.0231 1.0231 0 2.28516 0H3.41016H32.5898ZM2.25 3.41016C2.25 2.76942 2.76942 2.25 3.41016 2.25H32.5898C33.2306 2.25 33.75 2.76942 33.75 3.41016V32.5898C33.75 33.2306 33.2306 33.75 32.5898 33.75H3.41016C2.76942 33.75 2.25 33.2306 2.25 32.5898V3.41016Z" fill="#000060"/>
</g>
<defs>
<clipPath id="clip0_5_409">
<rect width="36" height="36" fill="white"/>
</clipPath>
</defs>
</svg>
